<?xml version="1.0" encoding="utf-8"?>
<svg viewBox="0 96.305 189.806 96.451" xmlns="http://www.w3.org/2000/svg">
  <path d="M 3.9 128.936 L 3.9 142.271 L 40.903 142.271 C 45.204 142.271 50.699 138.079 50.699 131.143 C 50.699 128.354 51.711 126.534 48.601 122.845 L 43.868 116.933 C 41.156 114.266 44.192 114.266 46.47 114.266 L 62.093 114.266 L 62.093 142.271 L 74.483 142.271 L 74.483 114.266 L 91.182 114.266 L 91.182 102.273 L 37.108 102.273 C 30.529 102.273 27.312 108.932 27.493 112.399 C 27.675 115.866 28.28 120.228 33.747 125.469 C 38.734 130.247 31.278 128.936 30.529 128.936 L 3.9 128.936 Z M 118.579 102.273 L 98.591 102.273 L 87.386 142.272 L 99.856 142.272 L 101.879 136.671 L 115.035 136.671 L 116.988 142.272 L 129.203 142.272 L 118.579 102.273 Z M 104.663 127.069 L 108.964 112.399 L 113.013 127.069 L 104.663 127.069 Z M 168.674 128.936 C 163.867 128.936 163.867 127.069 163.867 127.069 C 167.986 127.069 171.638 120.743 171.638 114.266 C 171.638 107.789 165.638 102.273 160.829 102.273 L 133.938 102.273 L 133.938 142.272 L 147.602 142.272 L 147.602 128.937 C 147.602 128.937 153.42 136.138 156.456 139.072 C 159.493 142.005 159.745 142.272 163.866 142.272 L 185.315 142.272 L 185.315 128.937 C 185.317 128.936 173.481 128.936 168.674 128.936 Z M 156.276 119.601 L 147.604 119.601 L 147.604 112.399 L 156.276 112.399 C 160.252 112.399 160.94 119.601 156.276 119.601 Z M 3.9 147.338 L 17.879 147.338 L 21.421 160.675 L 24.71 147.338 L 39.385 147.338 L 43.18 160.675 L 46.976 147.338 L 59.12 147.338 L 47.987 187.347 L 36.855 187.347 L 31.977 168.409 L 26.481 187.347 L 15.096 187.347 L 3.9 147.338 Z M 87.809 147.569 L 67.821 147.569 L 56.617 187.567 L 69.086 187.567 L 71.11 181.967 L 84.267 181.967 L 86.22 187.567 L 98.436 187.567 L 87.809 147.569 Z M 73.894 172.364 L 78.195 157.694 L 82.243 172.364 L 73.894 172.364 Z M 168.926 159.342 C 166.651 159.342 164.17 159.622 166.883 162.288 L 171.617 168.201 C 174.726 171.891 174.676 173.429 174.676 176.22 C 174.676 183.154 168.168 187.347 163.867 187.347 L 133.971 187.559 C 129.852 187.559 129.6 187.293 126.563 184.359 C 123.528 181.425 117.708 174.223 117.708 174.223 L 117.708 187.559 L 104.046 187.559 L 104.046 147.561 L 130.937 147.561 C 135.744 147.561 141.746 153.078 141.746 159.554 C 141.746 166.032 138.094 172.357 133.973 172.357 C 133.973 172.357 135.785 174.277 138.821 174.277 C 141.858 174.277 153.548 174.29 153.548 174.29 C 154.296 174.29 161.751 175.601 156.765 170.823 C 151.298 165.583 150.693 161.223 150.511 157.755 C 150.329 154.288 153.173 147.339 159.749 147.339 L 185.319 147.339 L 185.319 159.343 L 168.926 159.343 L 168.926 159.342 Z M 126.381 164.888 L 117.707 164.888 L 117.707 157.686 L 126.381 157.686 C 130.358 157.686 131.045 164.888 126.381 164.888 Z" fill-rule="evenodd" clip-rule="evenodd" style="stroke: rgb(255, 255, 255); paint-order: fill; fill: rgb(255, 255, 255);"/>
</svg>